<svg xmlns="http://www.w3.org/2000/svg" width="720" height="330" viewBox="0 0 720 330" font-family="Helvetica, Arial, sans-serif">
<rect width="720" height="330" fill="#ffffff"/>
<defs><marker id="a" viewBox="0 0 10 10" refX="8" refY="5" markerWidth="6" markerHeight="6" orient="auto-start-reverse"><path d="M2 1L8 5L2 9" fill="none" stroke="#5f5e5a" stroke-width="1.5" stroke-linecap="round"/></marker></defs>
<rect x="45" y="28" width="285" height="56" rx="8" fill="#e1f5ee" stroke="#0f6e56"/>
<text x="187" y="52" text-anchor="middle" font-size="14" font-weight="600" fill="#04342c">Imaging pipeline</text>
<text x="187" y="70" text-anchor="middle" font-size="11.5" fill="#0f6e56">localize, segment, measure, score</text>
<rect x="390" y="28" width="285" height="56" rx="8" fill="#e6f1fb" stroke="#185fa5"/>
<text x="532" y="52" text-anchor="middle" font-size="14" font-weight="600" fill="#042c53">Knowledge assistant</text>
<text x="532" y="70" text-anchor="middle" font-size="11.5" fill="#185fa5">retrieve, ground, cite or refuse</text>
<line x1="187" y1="90" x2="187" y2="140" stroke="#5f5e5a" stroke-width="1.3" marker-end="url(#a)"/>
<line x1="532" y1="140" x2="532" y2="90" stroke="#5f5e5a" stroke-width="1.3" marker-end="url(#a)"/>
<rect x="45" y="148" width="630" height="132" rx="12" fill="none" stroke="#b9c0c7" stroke-dasharray="4 4"/>
<text x="65" y="172" font-size="12.5" font-weight="600" fill="#14171a">Shared data layer &#8212; PostgreSQL with pgvector</text>
<rect x="65" y="190" width="190" height="52" rx="6" fill="#f4f6f8" stroke="#b9c0c7"/>
<text x="160" y="211" text-anchor="middle" font-size="12.5" font-weight="600" fill="#14171a">Relational</text>
<text x="160" y="228" text-anchor="middle" font-size="11" fill="#5f5e5a">cohorts, findings, reviews</text>
<rect x="268" y="190" width="190" height="52" rx="6" fill="#f4f6f8" stroke="#b9c0c7"/>
<text x="363" y="211" text-anchor="middle" font-size="12.5" font-weight="600" fill="#14171a">Vector</text>
<text x="363" y="228" text-anchor="middle" font-size="11" fill="#5f5e5a">embedded literature</text>
<rect x="471" y="190" width="190" height="52" rx="6" fill="#f4f6f8" stroke="#b9c0c7"/>
<text x="566" y="211" text-anchor="middle" font-size="12.5" font-weight="600" fill="#14171a">Object storage</text>
<text x="566" y="228" text-anchor="middle" font-size="11" fill="#5f5e5a">volumes and masks on disk</text>
<text x="360" y="264" text-anchor="middle" font-size="11" fill="#5f5e5a">Findings written by the pipeline become the query the assistant retrieves against</text>
</svg>